:SAMPLES-PER-SECOND 30
:FULLY-SPECIFIED
:DEGREES
78
root  50.3814 40.4439 -9.41608 110.303 -86.5556 -103.485
RightUpLeg  -25.8484 -3.80842 5.93484
RightLeg  27.4421 -3.84686 -2.37492
RightFoot  -8.00019 -0.212497 5.51402
RightToes  -5.8209e-011 0 -3.6325e-017
Spine  7.7361 -4.73574 -0.165318
Spine1  2.27246 -6.1436 6.20573
HEad  -22.4129 13.4774 -4.31073
LeftShoulder1  7.49687 -11.49 -43.4958
LeftArm  5.77429 13.1068 -31.473
LeftForeArm  -179.452 -58.3675 -164.747
LeftHand  -0.244104 0.0205437 5.32207
RightShoulder  4.95723 9.39135 32.502
RightArm  6.59011 -59.4532 25.322
RightForeArm  145.781 66.9491 154.214
RightHand  0.129375 -8.68914 -5.90551
LeftUpLeg  6.83919 12.5317 3.97514
LeftLeg  17.0809 -0.913373 -0.42158
LeftFoot  1.47649 0.776279 -7.04821
LeftToes  -6.09394e-011 -3.18376e-011 -2.71738e-012
79
root  48.5259 40.1772 -9.41014 112.596 -86.5442 -106.666
RightUpLeg  -22.9316 -5.61419 6.93104
RightLeg  21.753 -2.43898 -1.25215
RightFoot  -10.6092 -0.115439 6.35227
RightToes  -5.8209e-011 0 -3.6325e-017
Spine  8.60803 -4.61101 1.33471
Spine1  2.63535 -5.68881 5.40241
HEad  -22.1209 12.8896 -4.44064
LeftShoulder1  7.73663 -11.9446 -43.5706
LeftArm  6.90562 10.622 -32.1257
LeftForeArm  -179.352 -59.0945 -164.33
LeftHand  -0.244104 0.0205437 5.32207
RightShoulder  4.91186 9.3556 32.2529
RightArm  -0.226529 -58.5336 31.8914
RightForeArm  142.176 67.6807 152.863
RightHand  0.196227 -9.25519 -7.07726
LeftUpLeg  4.3233 8.6281 3.40739
LeftLeg  27.8809 1.24135 1.13739
LeftFoot  2.35209 0.790471 -6.69272
LeftToes  -6.09394e-011 -3.18376e-011 -2.71738e-012
80
root  46.7434 39.5118 -9.40865 100.045 -86.2657 -95.4891
RightUpLeg  -20.7362 -8.60225 8.27978
RightLeg  22.0295 -2.64438 -1.35296
RightFoot  -12.435 -0.0446621 4.22672
RightToes  -5.8209e-011 0 -3.6325e-017
Spine  10.011 -4.64893 3.5156
Spine1  3.18935 -5.28873 4.81635
HEad  -21.9035 11.767 -5.17281
LeftShoulder1  8.06147 -12.4878 -43.8767
LeftArm  7.27783 8.93423 -32.9263
LeftForeArm  -179.745 -59.9687 -163.758
LeftHand  -0.244104 0.0205437 5.32207
RightShoulder  4.78538 9.18055 31.7877
RightArm  -5.49049 -55.4239 37.637
RightForeArm  142.549 69.1255 150.969
RightHand  0.174459 -9.41439 -6.2191
LeftUpLeg  0.890407 4.36207 3.84496
LeftLeg  41.414 2.49904 2.71488
LeftFoot  0.50874 0.693323 -6.71739
LeftToes  -6.09394e-011 -3.18376e-011 -2.71738e-012
81
root  44.9394 38.655 -9.41556 91.066 -85.4526 -87.7683
RightUpLeg  -19.6627 -10.0147 9.64107
RightLeg  27.0084 -4.17031 -2.57768
RightFoot  -14.1147 -0.118414 -0.675303
RightToes  -5.8209e-011 0 -3.6325e-017
Spine  11.3119 -4.47422 6.25882
Spine1  3.60323 -4.54933 4.25444
HEad  -22.062 10.3762 -6.13033
LeftShoulder1  8.18127 -12.5345 -44.4287
LeftArm  7.08247 7.57548 -34.473
LeftForeArm  -178.945 -61.452 -162.847
LeftHand  -0.244104 0.0205437 5.32207
RightShoulder  5.02207 9.31204 33.2327
RightArm  -5.92434 -50.496 37.075
RightForeArm  141.923 69.5909 150.195
RightHand  0.162939 -9.55599 -5.71192
LeftUpLeg  -3.03292 1.57718 5.43038
LeftLeg  54.2475 2.46062 4.15752
LeftFoot  -1.36548 0.610392 -6.89285
LeftToes  -6.09394e-011 -3.18376e-011 -2.71738e-012
82
root  43.1167 37.7855 -9.40598 95.3606 -84.269 -92.7441
RightUpLeg  -19.4548 -9.24486 10.8951
RightLeg  34.1015 -5.46148 -4.21907
RightFoot  -17.5347 -0.363685 -4.57174
RightToes  -5.8209e-011 0 -3.6325e-017
Spine  12.5345 -3.98001 9.37526
Spine1  3.58924 -3.42135 3.37969
HEad  -23.4622 9.43884 -7.40217
LeftShoulder1  8.20189 -12.0886 -45.8693
LeftArm  5.53884 7.4539 -35.8364
LeftForeArm  -177.925 -63.4191 -161.514
LeftHand  -0.244104 0.0205437 5.32207
RightShoulder  5.71731 9.65078 37.4289
RightArm  -2.43933 -42.0196 30.9226
RightForeArm  137.069 69.3042 149.987
RightHand  0.24341 -9.91922 -7.29841
LeftUpLeg  -8.09265 0.153592 7.59138
LeftLeg  65.1343 2.239 5.98347
LeftFoot  -2.95841 0.460699 -6.01905
LeftToes  -6.09394e-011 -3.18376e-011 -2.71738e-012
83
root  41.299 37.0951 -9.38086 102.503 -83.0564 -99.936
RightUpLeg  -18.7576 -8.97037 11.7358
RightLeg  39.5843 -5.1281 -4.80934
RightFoot  -22.5337 -0.634156 -5.0147
RightToes  -5.8209e-011 0 -3.6325e-017
Spine  13.3747 -3.44403 12.595
Spine1  3.74842 -2.11218 1.76428
HEad  -25.604 8.69744 -8.71399
LeftShoulder1  8.45005 -11.8237 -48.1107
LeftArm  2.69842 10.418 -35.2866
LeftForeArm  -179.327 -64.6801 -160.363
LeftHand  -0.244104 0.0205437 5.32207
RightShoulder  6.43411 9.88395 41.8174
RightArm  -0.00685557 -29.8636 26.5874
RightForeArm  133.943 69.4286 149.395
RightHand  0.328202 -10.1642 -8.91656
LeftUpLeg  -14.5993 -0.276014 9.59604
LeftLeg  73.3038 1.86359 8.04755
LeftFoot  -4.77587 0.260568 -4.01379
LeftToes  -6.09394e-011 -3.18376e-011 -2.71738e-012
84
root  39.3481 36.8294 -9.394 107.648 -82.8022 -104.781
RightUpLeg  -15.8492 -9.84628 11.097
RightLeg  40.4696 -4.03241 -3.99365
RightFoot  -26.4527 -0.679195 -3.75311
RightToes  -5.8209e-011 0 -3.6325e-017
Spine  13.122 -2.57924 15.283
Spine1  4.5062 -0.270309 -1.20274
HEad  -26.8545 6.79479 -8.52367
LeftShoulder1  8.83648 -12.0177 -49.6982
LeftArm  0.811769 16.701 -32.4559
LeftForeArm  177.307 -64.2402 -160.379
LeftHand  -0.244104 0.0205437 5.32207
RightShoulder  6.67119 9.93157 43.2901
RightArm  -0.991925 -18.7197 28.796
RightForeArm  139.591 69.2986 150.321
RightHand  0.298678 -10.2374 -8.12568
LeftUpLeg  -21.3717 -0.180888 10.1327
LeftLeg  77.2593 1.54726 9.4239
LeftFoot  -6.77056 0.131999 -2.32034
LeftToes  -6.09394e-011 -3.18376e-011 -2.71738e-012
85
root  37.1074 37.1511 -9.50491 117.99 -84.3477 -114.758
RightUpLeg  -10.3252 -10.398 8.23459
RightLeg  36.5409 -3.24423 -2.85485
RightFoot  -27.1828 -0.599567 -3.00173
RightToes  -5.8209e-011 0 -3.6325e-017
Spine  11.942 -0.764504 16.353
Spine1  5.05833 2.56483 -5.63451
HEad  -26.225 3.0941 -5.78084
LeftShoulder1  8.86475 -12.184 -49.3264
LeftArm  2.2549 24.0979 -28.2663
LeftForeArm  175.808 -62.4623 -161.633
LeftHand  -0.244104 0.0205437 5.32207
RightShoulder  6.4445 9.81306 42.1169
RightArm  -3.36873 -12.7931 34.8617
RightForeArm  149.965 67.086 154.481
RightHand  0.224955 -9.93259 -6.8145
LeftUpLeg  -26.4656 0.425124 8.02222
LeftLeg  75.7925 1.94792 10.0992
LeftFoot  -8.72777 0.105949 -2.48448
LeftToes  -6.09394e-011 -3.18376e-011 -2.71738e-012
86
root  34.6162 37.9907 -9.67879 151.453 -86.6556 -147.702
RightUpLeg  -3.59511 -10.1028 3.69035
RightLeg  29.7481 -2.51898 -1.83016
RightFoot  -24.2724 -0.347734 -1.5689
RightToes  -5.8209e-011 0 -3.6325e-017
Spine  10.6166 1.74782 15.1998
Spine1  4.44938 5.70564 -10.2067
HEad  -24.0345 -1.31341 -1.85121
LeftShoulder1  8.3837 -11.9245 -47.4115
LeftArm  6.03327 30.5592 -23.8125
LeftForeArm  177.899 -60.3494 -163.306
LeftHand  -0.244104 0.0205437 5.32207
RightShoulder  6.18073 9.61291 40.9301
RightArm  -3.68645 -11.156 39.1236
RightForeArm  154.176 63.3431 158.771
RightHand  0.213624 -9.16329 -7.80021
LeftUpLeg  -29.1542 1.62677 3.62949
LeftLeg  68.9035 3.52818 10.7772
LeftFoot  -10.3717 0.0971005 -4.07356
LeftToes  -6.09394e-011 -3.18376e-011 -2.71738e-012
87
root  32.0141 39.0375 -9.79946 -146.711 -87.3888 151.33
RightUpLeg  2.51138 -11.1256 -1.14276
RightLeg  22.7559 -0.260158 -0.282876
RightFoot  -17.4545 -0.0245314 2.24236
RightToes  -5.8209e-011 0 -3.6325e-017
Spine  8.87774 3.83414 12.8122
Spine1  3.35283 7.74338 -13.0334
HEad  -20.8417 -4.79054 0.79154
LeftShoulder1  7.83081 -11.5001 -45.4968
LeftArm  8.76157 36.384 -20.1231
LeftForeArm  -179.436 -58.4009 -164.731
LeftHand  -0.244104 0.0205437 5.32207
RightShoulder  6.03991 9.37375 40.7225
RightArm  -0.51395 -10.6159 39.2214
RightForeArm  153.174 60.2811 161.096
RightHand  0.180518 -8.13968 -8.81487
LeftUpLeg  -30.0142 3.17682 -1.26919
LeftLeg  57.746 5.93075 10.5783
LeftFoot  -11.2285 0.072926 -4.82583
LeftToes  -6.09394e-011 -3.18376e-011 -2.71738e-012
88
root  29.3983 39.9382 -9.81407 -101.42 -87.0301 106.939
RightUpLeg  6.96332 -14.1518 -4.99108
RightLeg  18.3493 3.24092 1.50075
RightFoot  -6.96809 -0.300223 6.62595
RightToes  -5.8209e-011 0 -3.6325e-017
Spine  6.24687 4.82835 10.9209
Spine1  3.33545 8.36228 -13.6081
HEad  -17.4431 -6.8677 1.31996
LeftShoulder1  7.69217 -11.5204 -44.5935
LeftArm  8.63351 42.1664 -17.7325
LeftForeArm  -179.726 -56.6451 -165.675
LeftHand  -0.244104 0.0205437 5.32207
RightShoulder  5.88532 9.17278 40.2724
RightArm  4.28866 -9.84703 37.5198
RightForeArm  155.599 58.4098 162.566
RightHand  0.110244 -8.54863 -5.89956
LeftUpLeg  -29.4434 4.84688 -5.11644
LeftLeg  44.3442 7.11441 7.87375
LeftFoot  -11.5031 0.0632252 -4.2724
LeftToes  -6.09394e-011 -3.18376e-011 -2.71738e-012
89
root  26.8467 40.5036 -9.77696 -70.9989 -87.1047 76.6958
RightUpLeg  9.26513 -15.6501 -6.66215
RightLeg  18.7068 5.06566 2.16254
RightFoot  3.64153 -1.08975 8.61252
RightToes  -5.8209e-011 0 -3.6325e-017
Spine  3.87496 5.11914 10.1534
Spine1  4.58625 8.3932 -13.0931
HEad  -15.0554 -8.09827 0.977338
LeftShoulder1  7.92897 -12.0243 -44.4703
LeftArm  6.10743 46.652 -17.3826
LeftForeArm  178.216 -55.3028 -166.199
LeftHand  -0.244104 0.0205437 5.32207
RightShoulder  5.80517 9.2715 39.34
RightArm  8.45973 -9.46533 36.1036
RightForeArm  161.962 57.2651 163.807
RightHand  -0.00897943 -9.86876 -0.983737
LeftUpLeg  -27.3615 6.80334 -7.53456
LeftLeg  31.2122 5.2359 3.83571
LeftFoot  -12.2085 0.0364903 -4.57109
LeftToes  -6.09394e-011 -3.18376e-011 -2.71738e-012
90
root  24.4173 40.6536 -9.74689 -56.6316 -87.4046 61.5227
RightUpLeg  9.09537 -11.7948 -5.97899
RightLeg  24.7441 2.77339 1.05951
RightFoot  9.16513 -1.45787 8.40445
RightToes  -5.8209e-011 0 -3.6325e-017
Spine  3.09743 5.28118 9.74798
Spine1  5.98875 8.46758 -12.4511
HEad  -14.0123 -8.73462 1.15807
LeftShoulder1  8.09414 -12.4088 -44.2937
LeftArm  2.40777 48.4878 -19.6424
LeftForeArm  178.215 -54.6098 -166.536
LeftHand  -0.244104 0.0205437 5.32207
RightShoulder  5.98177 9.7358 39.0863
RightArm  11.691 -9.69343 34.3379
RightForeArm  165.466 56.9713 164.269
RightHand  -0.0892526 -9.76973 0.917614
LeftUpLeg  -24.1868 8.65303 -8.73654
LeftLeg  20.7058 2.31135 1.08489
LeftFoot  -13.0866 -0.00691116 -5.79622
LeftToes  -6.09394e-011 -3.18376e-011 -2.71738e-012
